{
	"accessors" : 
	[
		{
			"bufferView" : 2,
			"byteOffset" : 0,
			"componentType" : 5126,
			"count" : 7404,
			"max" : 
			[
				1,
				1,
				1,
				1
			],
			"min" : 
			[
				0.006584956776350737,
				0.006584956776350737,
				0.006584956776350737,
				1
			],
			"name" : "accessor_color_m0-PolyPaper16_-151572",
			"type" : "VEC4"
		},
		{
			"bufferView" : 2,
			"byteOffset" : 118464,
			"componentType" : 5126,
			"count" : 2180,
			"max" : 
			[
				1,
				0.6940805315971375,
				0.7893137335777283,
				1
			],
			"min" : 
			[
				5.692175545846112e-05,
				0.006584956776350737,
				0.006584956776350737,
				1
			],
			"name" : "accessor_color_m1-PolyPaper23_-151578",
			"type" : "VEC4"
		},
		{
			"bufferView" : 0,
			"byteOffset" : 0,
			"componentType" : 5123,
			"count" : 12090,
			"max" : 
			[
				7403
			],
			"min" : 
			[
				0
			],
			"name" : "accessor_indices_0_m0-PolyPaper16_-151572",
			"type" : "SCALAR"
		},
		{
			"bufferView" : 0,
			"byteOffset" : 24180,
			"componentType" : 5123,
			"count" : 3474,
			"max" : 
			[
				2179
			],
			"min" : 
			[
				0
			],
			"name" : "accessor_indices_0_m1-PolyPaper23_-151578",
			"type" : "SCALAR"
		},
		{
			"bufferView" : 1,
			"byteOffset" : 88848,
			"componentType" : 5126,
			"count" : 7404,
			"max" : 
			[
				0.99971,
				0.9999751,
				0.9998407
			],
			"min" : 
			[
				-0.9993031999999999,
				-0.9995654,
				-0.9998407
			],
			"name" : "accessor_normal_m0-PolyPaper16_-151572",
			"type" : "VEC3"
		},
		{
			"bufferView" : 1,
			"byteOffset" : 203856,
			"componentType" : 5126,
			"count" : 2180,
			"max" : 
			[
				0.9979529,
				0.9994251,
				0.9996229
			],
			"min" : 
			[
				-0.9987282,
				-0.9976231,
				-0.9996231
			],
			"name" : "accessor_normal_m1-PolyPaper23_-151578",
			"type" : "VEC3"
		},
		{
			"bufferView" : 1,
			"byteOffset" : 0,
			"componentType" : 5126,
			"count" : 7404,
			"max" : 
			[
				2.219157,
				2.558543,
				4.803328
			],
			"min" : 
			[
				-3.283396,
				0.4246986,
				-3.566892
			],
			"name" : "accessor_position_m0-PolyPaper16_-151572",
			"type" : "VEC3"
		},
		{
			"bufferView" : 1,
			"byteOffset" : 177696,
			"componentType" : 5126,
			"count" : 2180,
			"max" : 
			[
				1.661525,
				2.446428,
				1.958875
			],
			"min" : 
			[
				-3.454204,
				0.1168646,
				-0.7873546
			],
			"name" : "accessor_position_m1-PolyPaper23_-151578",
			"type" : "VEC3"
		}
	],
	"asset" : 
	{
		"copyright" : "Unknown",
		"generator" : "glTF 1-to-2 Upgrader for Google Blocks",
		"version" : "2.0"
	},
	"bufferViews" : 
	[
		{
			"buffer" : 0,
			"byteLength" : 31128,
			"byteOffset" : 0,
			"name" : "ushortBufferView",
			"target" : 34963
		},
		{
			"buffer" : 0,
			"byteLength" : 230016,
			"byteOffset" : 31128,
			"byteStride" : 12,
			"name" : "vec3BufferView",
			"target" : 34962
		},
		{
			"buffer" : 0,
			"byteLength" : 153344,
			"byteOffset" : 261144,
			"byteStride" : 16,
			"name" : "vec4BufferView",
			"target" : 34962
		}
	],
	"buffers" : 
	[
		{
			"byteLength" : 414488,
			"name" : "model",
			"uri" : "model.bin"
		}
	],
	"materials" : 
	[
		{
			"alphaMode" : "OPAQUE",
			"doubleSided" : false,
			"name" : "BlocksPaper",
			"pbrMetallicRoughness" : 
			{
				"baseColorFactor" : 
				[
					1,
					1,
					1,
					1
				],
				"metallicFactor" : 0,
				"roughnessFactor" : 0.6
			}
		},
		{
			"alphaMode" : "BLEND",
			"doubleSided" : false,
			"name" : "BlocksGlass",
			"pbrMetallicRoughness" : 
			{
				"baseColorFactor" : 
				[
					0.2,
					0.2,
					1,
					0.3
				],
				"metallicFactor" : 1,
				"roughnessFactor" : 0.4
			}
		},
		{
			"alphaMode" : "OPAQUE",
			"doubleSided" : true,
			"name" : "BlocksGem",
			"pbrMetallicRoughness" : 
			{
				"baseColorFactor" : 
				[
					1,
					0.4,
					1,
					1
				],
				"metallicFactor" : 0,
				"roughnessFactor" : 0.1
			}
		}
	],
	"meshes" : 
	[
		{
			"name" : "mesh_m0-PolyPaper16_-151572",
			"primitives" : 
			[
				{
					"attributes" : 
					{
						"COLOR_0" : 0,
						"NORMAL" : 4,
						"POSITION" : 6
					},
					"indices" : 2,
					"material" : 0,
					"mode" : 4
				}
			]
		},
		{
			"name" : "mesh_m1-PolyPaper23_-151578",
			"primitives" : 
			[
				{
					"attributes" : 
					{
						"COLOR_0" : 1,
						"NORMAL" : 5,
						"POSITION" : 7
					},
					"indices" : 3,
					"material" : 0,
					"mode" : 4
				}
			]
		}
	],
	"nodes" : 
	[
		{
			"matrix" : 
			[
				1,
				0,
				0,
				0,
				0,
				1,
				0,
				0,
				0,
				0,
				1,
				0,
				0,
				0,
				0,
				1
			],
			"mesh" : 1,
			"name" : "node_MeshObject-1602544640-PolyPaper23"
		},
		{
			"matrix" : 
			[
				1,
				0,
				0,
				0,
				0,
				1,
				0,
				0,
				0,
				0,
				1,
				0,
				0,
				0,
				0,
				1
			],
			"mesh" : 0,
			"name" : "node_MeshObject2120343552-PolyPaper16"
		}
	],
	"scene" : 0,
	"scenes" : 
	[
		{
			"extras" : {},
			"name" : "defaultScene",
			"nodes" : 
			[
				1,
				0
			]
		}
	]
}