{
	"accessors" : 
	[
		{
			"bufferView" : 2,
			"byteOffset" : 0,
			"componentType" : 5126,
			"count" : 19940,
			"max" : 
			[
				1,
				1,
				1,
				1
			],
			"min" : 
			[
				0.0697270855307579,
				0.05284162610769272,
				0.0328759141266346,
				1
			],
			"name" : "accessor_color_m0-PolyPaper19_-21704",
			"type" : "VEC4"
		},
		{
			"bufferView" : 2,
			"byteOffset" : 319040,
			"componentType" : 5126,
			"count" : 12648,
			"max" : 
			[
				1,
				1,
				1,
				1
			],
			"min" : 
			[
				1,
				1,
				1,
				1
			],
			"name" : "accessor_color_m1-PolyPaper21_-21710",
			"type" : "VEC4"
		},
		{
			"bufferView" : 0,
			"byteOffset" : 0,
			"componentType" : 5123,
			"count" : 29118,
			"max" : 
			[
				19939
			],
			"min" : 
			[
				0
			],
			"name" : "accessor_indices_0_m0-PolyPaper19_-21704",
			"type" : "SCALAR"
		},
		{
			"bufferView" : 0,
			"byteOffset" : 58236,
			"componentType" : 5123,
			"count" : 17856,
			"max" : 
			[
				12647
			],
			"min" : 
			[
				0
			],
			"name" : "accessor_indices_0_m1-PolyPaper21_-21710",
			"type" : "SCALAR"
		},
		{
			"bufferView" : 1,
			"byteOffset" : 239280,
			"componentType" : 5126,
			"count" : 19940,
			"max" : 
			[
				0.996449,
				0.9999668,
				0.9985192000000001
			],
			"min" : 
			[
				-0.9981542,
				-0.9999670000000001,
				-0.9984068
			],
			"name" : "accessor_normal_m0-PolyPaper19_-21704",
			"type" : "VEC3"
		},
		{
			"bufferView" : 1,
			"byteOffset" : 630336,
			"componentType" : 5126,
			"count" : 12648,
			"max" : 
			[
				0.9976051,
				0.9999648,
				0.9999738
			],
			"min" : 
			[
				-0.9976053,
				-0.9999648,
				-0.9999737
			],
			"name" : "accessor_normal_m1-PolyPaper21_-21710",
			"type" : "VEC3"
		},
		{
			"bufferView" : 1,
			"byteOffset" : 0,
			"componentType" : 5126,
			"count" : 19940,
			"max" : 
			[
				0.6010377,
				2.114484,
				-0.8863677
			],
			"min" : 
			[
				-1.105087,
				1.127889,
				-2.568745
			],
			"name" : "accessor_position_m0-PolyPaper19_-21704",
			"type" : "VEC3"
		},
		{
			"bufferView" : 1,
			"byteOffset" : 478560,
			"componentType" : 5126,
			"count" : 12648,
			"max" : 
			[
				0.4660671,
				1.955754,
				-0.9976721
			],
			"min" : 
			[
				-0.8858392,
				1.713416,
				-2.33545
			],
			"name" : "accessor_position_m1-PolyPaper21_-21710",
			"type" : "VEC3"
		}
	],
	"asset" : 
	{
		"copyright" : "Unknown",
		"generator" : "glTF 1-to-2 Upgrader for Google Blocks",
		"version" : "2.0"
	},
	"bufferViews" : 
	[
		{
			"buffer" : 0,
			"byteLength" : 93948,
			"byteOffset" : 0,
			"name" : "ushortBufferView",
			"target" : 34963
		},
		{
			"buffer" : 0,
			"byteLength" : 782112,
			"byteOffset" : 93948,
			"byteStride" : 12,
			"name" : "vec3BufferView",
			"target" : 34962
		},
		{
			"buffer" : 0,
			"byteLength" : 521408,
			"byteOffset" : 876060,
			"byteStride" : 16,
			"name" : "vec4BufferView",
			"target" : 34962
		}
	],
	"buffers" : 
	[
		{
			"byteLength" : 1397468,
			"name" : "model",
			"uri" : "model.bin"
		}
	],
	"materials" : 
	[
		{
			"alphaMode" : "OPAQUE",
			"doubleSided" : false,
			"name" : "BlocksPaper",
			"pbrMetallicRoughness" : 
			{
				"baseColorFactor" : 
				[
					1,
					1,
					1,
					1
				],
				"metallicFactor" : 0,
				"roughnessFactor" : 0.6
			}
		},
		{
			"alphaMode" : "BLEND",
			"doubleSided" : false,
			"name" : "BlocksGlass",
			"pbrMetallicRoughness" : 
			{
				"baseColorFactor" : 
				[
					0.2,
					0.2,
					1,
					0.3
				],
				"metallicFactor" : 1,
				"roughnessFactor" : 0.4
			}
		},
		{
			"alphaMode" : "OPAQUE",
			"doubleSided" : true,
			"name" : "BlocksGem",
			"pbrMetallicRoughness" : 
			{
				"baseColorFactor" : 
				[
					1,
					0.4,
					1,
					1
				],
				"metallicFactor" : 0,
				"roughnessFactor" : 0.1
			}
		}
	],
	"meshes" : 
	[
		{
			"name" : "mesh_m0-PolyPaper19_-21704",
			"primitives" : 
			[
				{
					"attributes" : 
					{
						"COLOR_0" : 0,
						"NORMAL" : 4,
						"POSITION" : 6
					},
					"indices" : 2,
					"material" : 0,
					"mode" : 4
				}
			]
		},
		{
			"name" : "mesh_m1-PolyPaper21_-21710",
			"primitives" : 
			[
				{
					"attributes" : 
					{
						"COLOR_0" : 1,
						"NORMAL" : 5,
						"POSITION" : 7
					},
					"indices" : 3,
					"material" : 0,
					"mode" : 4
				}
			]
		}
	],
	"nodes" : 
	[
		{
			"matrix" : 
			[
				1,
				0,
				0,
				0,
				0,
				1,
				0,
				0,
				0,
				0,
				1,
				0,
				0,
				0,
				0,
				1
			],
			"mesh" : 1,
			"name" : "node_MeshObject1383275520-PolyPaper21"
		},
		{
			"matrix" : 
			[
				1,
				0,
				0,
				0,
				0,
				1,
				0,
				0,
				0,
				0,
				1,
				0,
				0,
				0,
				0,
				1
			],
			"mesh" : 0,
			"name" : "node_MeshObject811196416-PolyPaper19"
		}
	],
	"scene" : 0,
	"scenes" : 
	[
		{
			"extras" : {},
			"name" : "defaultScene",
			"nodes" : 
			[
				1,
				0
			]
		}
	]
}